<svg width="12" height="12" fill="none" xmlns="http://www.w3.org/2000/svg"><g clip-path="url(#clip0)" fill="#7B7B7B"><path d="M10.25 1h-.5a.25.25 0 000 .5h.5c.69 0 1.25.56 1.25 1.25v7.5c0 .69-.56 1.25-1.25 1.25h-8.5c-.69 0-1.25-.56-1.25-1.25v-7.5c0-.69.56-1.25 1.25-1.25h.5a.25.25 0 000-.5h-.5C.785 1 0 1.785 0 2.75v7.5C0 11.215.785 12 1.75 12h8.5c.965 0 1.75-.785 1.75-1.75v-7.5C12 1.785 11.215 1 10.25 1z"/><path d="M7.75 1H4.248a.25.25 0 000 .5h3.5a.25.25 0 000-.5zm4 2.5H.25a.25.25 0 000 .5h11.5a.25.25 0 000-.5zM3.25 0A.25.25 0 003 .25v2a.25.25 0 00.5 0v-2A.25.25 0 003.25 0zm5.499 0a.25.25 0 00-.25.25v2a.25.25 0 00.5 0v-2a.25.25 0 00-.25-.25z"/></g><defs><clipPath id="clip0"><path fill="#fff" d="M0 0h12v12H0z"/></clipPath></defs></svg>