<svg width="24" height="24" fill="none" xmlns="http://www.w3.org/2000/svg"><path d="M15.844 11.25h5.062A3.097 3.097 0 0024 8.156V3.094A3.097 3.097 0 0020.906 0h-5.062a3.097 3.097 0 00-3.094 3.094v5.062a3.097 3.097 0 003.094 3.094zm5.062-9.75c.88 0 1.594.715 1.594 1.594v5.062c0 .88-.715 1.594-1.594 1.594h-5.062a1.596 1.596 0 01-1.594-1.594V3.094c0-.88.715-1.594 1.594-1.594h5.062zM3.094 11.25h5.062a3.097 3.097 0 003.094-3.094V3.094A3.097 3.097 0 008.156 0H3.094A3.097 3.097 0 000 3.094v5.062a3.097 3.097 0 003.094 3.094zM8.156 1.5c.88 0 1.594.715 1.594 1.594v5.062c0 .88-.715 1.594-1.594 1.594H3.094A1.596 1.596 0 011.5 8.156V3.094c0-.88.715-1.594 1.594-1.594h5.062zM5.625 24a5.631 5.631 0 005.625-5.625 5.631 5.631 0 00-5.625-5.625A5.631 5.631 0 000 18.375 5.631 5.631 0 005.625 24zm0-9.75a4.13 4.13 0 014.125 4.125A4.13 4.13 0 015.625 22.5 4.13 4.13 0 011.5 18.375a4.13 4.13 0 014.125-4.125zM15.844 24h5.062A3.097 3.097 0 0024 20.906v-5.062a3.097 3.097 0 00-3.094-3.094h-5.062a3.097 3.097 0 00-3.094 3.094v5.062A3.097 3.097 0 0015.844 24zm5.062-9.75c.88 0 1.594.715 1.594 1.594v5.062c0 .88-.715 1.594-1.594 1.594h-5.062a1.596 1.596 0 01-1.594-1.594v-5.062c0-.88.715-1.594 1.594-1.594h5.062z" fill="#7B7B7B"/></svg>