<svg width="20" height="20" fill="none" xmlns="http://www.w3.org/2000/svg"><g clip-path="url(#clip0)"><path d="M19.878 8.455L15.71 4.29a.417.417 0 00-.294-.122h-3.75v-1.25a.416.416 0 00-.417-.417H1.667A1.666 1.666 0 000 4.167v10.416c0 .69.56 1.25 1.25 1.25h.987A2.496 2.496 0 004.583 17.5a2.496 2.496 0 002.347-1.667h6.14a2.496 2.496 0 002.347 1.667 2.496 2.496 0 002.346-1.667h.57c.92 0 1.667-.747 1.667-1.666V8.75a.416.416 0 00-.122-.295zM4.583 16.667A1.668 1.668 0 116.25 15c0 .92-.747 1.667-1.667 1.667zm10.834 0c-.92 0-1.667-.748-1.667-1.667 0-.92.748-1.667 1.667-1.667s1.666.748 1.666 1.667c0 .92-.747 1.667-1.666 1.667zm2.5-6.667H13.75a.416.416 0 01-.417-.417V6.25a.416.416 0 11.834 0v2.917h3.75a.416.416 0 110 .833z" fill="url(#paint0_linear)"/></g><defs><linearGradient id="paint0_linear" x1="20" y1="2.5" x2="-1.119" y2="4.289" gradientUnits="userSpaceOnUse"><stop stop-color="#F86476"/><stop offset=".656" stop-color="#FEA185"/></linearGradient><clipPath id="clip0"><path fill="#fff" d="M0 0h20v20H0z"/></clipPath></defs></svg>