<svg width="23" height="23" fill="none" xmlns="http://www.w3.org/2000/svg"><g clip-path="url(#clip0)" fill="#4F86EC"><path d="M15.448 1.848L5.011 7.192.862 5.15 11.116.088a.84.84 0 01.747 0l3.585 1.76zm6.677 3.302l-10.62 5.262-3.977-1.96-.575-.292 10.449-5.343.575.292 4.148 2.042zm-11.47 6.778L10.643 23 .472 17.692A.889.889 0 010 16.91V6.667l4.31 2.124v3.733c0 .479.392.875.863.875a.875.875 0 00.863-.875v-2.87l.575.28 4.044 1.994zm12.333-5.249L12.38 11.917l-.012 11.072L23 17.437l-.012-10.758z"/></g><defs><clipPath id="clip0"><path fill="#fff" d="M0 0h23v23H0z"/></clipPath></defs></svg>