<svg xmlns="http://www.w3.org/2000/svg" viewBox="0 0 55.04 55.04"><path d="M22.71 40.25a17.75 17.75 0 10-17.9-17.59 17.75 17.75 0 0017.9 17.59zM6.59 22.65A16.06 16.06 0 017 18.87L14.44 25l-3 9a15.91 15.91 0 01-4.85-11.35zm19.48-6.45a.88.88 0 00.72.52l9.54 1-7.24 6.21a.88.88 0 00-.25 1l3.09 8.69-9.1-4.4a.89.89 0 00-.43 0l-9 4.56L16.32 25a.88.88 0 00-.32-1l-7.3-6 9.52-1.16a.88.88 0 00.71-.54l3.5-8.36zM13.41 35.57L22.63 31l9.3 4.45a15.87 15.87 0 01-18.52.12zm20.46-1.81l-3.16-8.89L38 18.6a15.79 15.79 0 01-4.13 15.16zM37.14 16l-9.65-1-3.7-8.42A16 16 0 0137.14 16zM21 6.62l-3.51 8.48-9.63 1.17A16 16 0 0121 6.62z" fill="#fff" fill-opacity=".2"/><path d="M.38 22.7A22.18 22.18 0 1022.36.33 22.17 22.17 0 00.38 22.7zm22-20.6A20.41 20.41 0 112.15 22.69 20.41 20.41 0 0122.37 2.1z" fill="#fff" fill-opacity=".2"/></svg>