<svg width="36" height="34" fill="none" xmlns="http://www.w3.org/2000/svg"><path d="M34.945 7.312H26.93V1.055C26.93.472 26.457 0 25.875 0H1.055C.472 0 0 .472 0 1.055v27.28a5.28 5.28 0 005.273 5.274h25.454A5.28 5.28 0 0036 28.336V8.367c0-.582-.472-1.055-1.055-1.055zM5.273 31.5a3.168 3.168 0 01-3.164-3.164V2.109H24.82c0 27.877-.013 26.327.024 26.724a5.26 5.26 0 001.034 2.667H5.273zm28.618-3.164a3.168 3.168 0 01-3.164 3.164h-.633a3.168 3.168 0 01-3.164-3.164V9.422h6.96v18.914z" fill="url(#paint0_linear)"/><path d="M21.375 5.062H5.625a1.055 1.055 0 000 2.11h15.75a1.055 1.055 0 000-2.11z" fill="url(#paint1_linear)"/><path d="M21.375 9.562H5.625a1.055 1.055 0 000 2.11h15.75a1.055 1.055 0 000-2.11z" fill="url(#paint2_linear)"/><path d="M21.375 26.437H5.625a1.055 1.055 0 000 2.11h15.75a1.055 1.055 0 000-2.11z" fill="url(#paint3_linear)"/><path d="M21.375 14.062H13.5c-.582 0-1.055.473-1.055 1.055v7.875c0 .582.473 1.055 1.055 1.055h7.875c.582 0 1.055-.473 1.055-1.055v-7.875c0-.582-.473-1.055-1.055-1.055zm-1.055 7.875h-5.765v-5.765h5.765v5.765z" fill="url(#paint4_linear)"/><path d="M5.625 17.86H9a1.055 1.055 0 000-2.11H5.625a1.055 1.055 0 000 2.11z" fill="url(#paint5_linear)"/><path d="M5.625 22.36H9a1.055 1.055 0 000-2.11H5.625a1.055 1.055 0 000 2.11z" fill="url(#paint6_linear)"/><defs><linearGradient id="paint0_linear" x1="36" y1="0" x2="-2.111" y2="2.594" gradientUnits="userSpaceOnUse"><stop stop-color="#F86476"/><stop offset=".342" stop-color="#FEA185"/></linearGradient><linearGradient id="paint1_linear" x1="22.43" y1="5.062" x2="7.699" y2="12.988" gradientUnits="userSpaceOnUse"><stop stop-color="#F86476"/><stop offset=".342" stop-color="#FEA185"/></linearGradient><linearGradient id="paint2_linear" x1="22.43" y1="9.562" x2="7.699" y2="17.488" gradientUnits="userSpaceOnUse"><stop stop-color="#F86476"/><stop offset=".342" stop-color="#FEA185"/></linearGradient><linearGradient id="paint3_linear" x1="22.43" y1="26.437" x2="7.699" y2="34.363" gradientUnits="userSpaceOnUse"><stop stop-color="#F86476"/><stop offset=".342" stop-color="#FEA185"/></linearGradient><linearGradient id="paint4_linear" x1="22.43" y1="14.062" x2="11.854" y2="14.735" gradientUnits="userSpaceOnUse"><stop stop-color="#F86476"/><stop offset=".342" stop-color="#FEA185"/></linearGradient><linearGradient id="paint5_linear" x1="10.055" y1="15.75" x2="4.377" y2="16.688" gradientUnits="userSpaceOnUse"><stop stop-color="#F86476"/><stop offset=".342" stop-color="#FEA185"/></linearGradient><linearGradient id="paint6_linear" x1="10.055" y1="20.25" x2="4.377" y2="21.188" gradientUnits="userSpaceOnUse"><stop stop-color="#F86476"/><stop offset=".342" stop-color="#FEA185"/></linearGradient></defs></svg>