<svg version="1.1" id="Слой_1" xmlns="http://www.w3.org/2000/svg" xmlns:xlink="http://www.w3.org/1999/xlink" x="0" y="0" viewBox="0 0 20 11.8" xml:space="preserve"><style>.st1{fill:#7b7b7b}</style><defs><path id="SVGID_1_" d="M0-4.2h20v20H0z"/></defs><clipPath id="SVGID_2_"><use xlink:href="#SVGID_1_" overflow="visible"/></clipPath><g clip-path="url(#SVGID_2_)"><path class="st1" d="M19.9 5.6C19.8 5.4 16 0 10 0 4.9 0 .3 5.3.1 5.6c-.1.1-.1.3 0 .5.2.2 4.8 5.6 9.9 5.6 5.1 0 9.7-5.3 9.9-5.6.1-.1.1-.3 0-.5zM10 10.8c-4.1 0-8-3.9-9-5 1-1.1 4.9-5 9-5 4.8 0 8.2 3.9 9 5-.9 1.1-4.8 5-9 5z"/><path class="st1" d="M10 2.5C8.2 2.5 6.7 4 6.7 5.8c0 1.8 1.5 3.3 3.3 3.3 1.8 0 3.3-1.5 3.3-3.3 0-1.8-1.5-3.3-3.3-3.3zm0 5.8c-1.4 0-2.5-1.1-2.5-2.5S8.6 3.3 10 3.3s2.5 1.1 2.5 2.5-1.1 2.5-2.5 2.5z"/></g></svg>