<svg width="36" height="36" fill="none" xmlns="http://www.w3.org/2000/svg"><g clip-path="url(#clip0)"><path d="M32.478 7.012H31.08a4.63 4.63 0 00.617-2.312A4.604 4.604 0 0028.924.44a4.603 4.603 0 00-5.017.808l-2.953 2.676A3.521 3.521 0 0018 2.316a3.52 3.52 0 00-2.957 1.613l-2.958-2.681A4.603 4.603 0 007.067.44 4.603 4.603 0 004.296 4.7c0 .84.226 1.629.617 2.31H3.522A3.526 3.526 0 000 10.534v4.696c0 .648.526 1.174 1.174 1.174h1.174v16.044a3.526 3.526 0 003.522 3.521h24.26a3.526 3.526 0 003.522-3.522V16.404h1.174c.648 0 1.174-.525 1.174-1.174v-4.696a3.526 3.526 0 00-3.522-3.521zm-18 26.608H5.87a1.175 1.175 0 01-1.174-1.173V16.402h9.782V33.62zm0-19.565H2.348v-3.522c0-.647.526-1.174 1.174-1.174h10.956v4.696zM8.956 7.012A2.314 2.314 0 016.644 4.7c0-.941.514-1.731 1.375-2.113.314-.14.638-.208.956-.208.553 0 1.09.207 1.533.608l4.44 4.025H8.957zM18 4.664c.554 0 1.018.386 1.141.903l-1.145 1.038-1.139-1.032c.12-.52.587-.91 1.143-.91zm1.174 28.956h-2.348V16.403h2.348V33.62zm0-19.565h-2.348V9.36h2.348v4.696zm6.31-11.068a2.256 2.256 0 012.49-.4A2.255 2.255 0 0129.347 4.7a2.314 2.314 0 01-2.312 2.312h-5.992l4.44-4.025zm5.82 29.46c0 .647-.526 1.173-1.174 1.173h-8.608V16.404h9.782v16.044zm2.348-18.392h-12.13V9.36h10.956c.648 0 1.174.527 1.174 1.174v3.522z" fill="url(#paint0_linear)"/></g><defs><linearGradient id="paint0_linear" x1="36" y1=".031" x2="-2.133" y2="2.459" gradientUnits="userSpaceOnUse"><stop stop-color="#F86476"/><stop offset=".342" stop-color="#FEA185"/></linearGradient><clipPath id="clip0"><path fill="#fff" d="M0 0h36v36H0z"/></clipPath></defs></svg>