<svg width="20" height="22" fill="none" xmlns="http://www.w3.org/2000/svg"><path d="M5.856 11.645h7.735a.644.644 0 00.644-.645V3.223a.644.644 0 00-.644-.645h-1.934v-.644A1.936 1.936 0 009.724 0 1.936 1.936 0 007.79 1.934v.644H5.856a.644.644 0 00-.644.645V11c0 .356.288.645.644.645zM9.08 1.934a.645.645 0 011.29 0v.644H9.08v-.644z" fill="#4F86EC"/><path d="M19.113 10.666a.645.645 0 00-.551-.31c-1.136 0-2.178.63-2.705 1.636l-1.977 3.773a1.93 1.93 0 01-1.713 1.036H7.79a.644.644 0 110-1.29h4.377a.64.64 0 00.571-.345l.739-1.41a.562.562 0 00-.498-.822h-6.7c-.86 0-1.67.335-2.278.944L.189 17.689a.644.644 0 000 .912l3.222 3.21a.643.643 0 00.912 0l2.445-2.432h5.399a4.501 4.501 0 003.997-2.418l2.968-5.661a.642.642 0 00-.019-.634z" fill="#4F86EC"/></svg>