<svg width="28" height="28" fill="none" xmlns="http://www.w3.org/2000/svg"><g clip-path="url(#clip0)"><path d="M1.75 1.905C-.45 4.191 0 6.62 0 13.995c0 6.124-1.069 12.264 4.524 13.71 1.747.45 17.221.45 18.966-.002 2.328-.601 4.223-2.49 4.482-5.784.036-.46.036-15.382-.001-15.851-.276-3.508-2.435-5.53-5.28-5.94-.653-.094-.783-.122-4.13-.128C6.694.006 4.092-.523 1.75 1.905z" fill="url(#paint0_linear)"/><path d="M13.998 3.662c-4.237 0-8.26-.377-9.796 3.567C3.568 8.857 3.66 10.973 3.66 14c0 2.658-.085 5.156.542 6.772 1.533 3.945 5.589 3.567 9.793 3.567 4.057 0 8.24.423 9.795-3.567.635-1.645.542-3.729.542-6.772 0-4.039.223-6.646-1.736-8.604-1.983-1.983-4.666-1.735-8.603-1.735h.005zm-.927 1.863c8.837-.014 9.961-.996 9.34 12.65-.22 4.827-3.895 4.297-8.412 4.297-8.237 0-8.474-.235-8.474-8.475 0-8.336.654-8.467 7.546-8.474v.002zm6.445 1.717a1.24 1.24 0 100 2.48 1.24 1.24 0 000-2.48zm-5.518 1.45a5.31 5.31 0 000 10.618A5.307 5.307 0 0019.305 14a5.308 5.308 0 00-5.307-5.31zm0 1.863c4.556 0 4.561 6.893 0 6.893-4.555 0-4.562-6.893 0-6.893z" fill="#fff"/></g><defs><linearGradient id="paint0_linear" x1="1.804" y1="26.212" x2="27.827" y2="3.689" gradientUnits="userSpaceOnUse"><stop stop-color="#FD5"/><stop offset=".5" stop-color="#FF543E"/><stop offset="1" stop-color="#C837AB"/></linearGradient><clipPath id="clip0"><path fill="#fff" d="M0 0h28v28H0z"/></clipPath></defs></svg>