<svg width="18" height="18" fill="none" xmlns="http://www.w3.org/2000/svg"><g clip-path="url(#clip0)" fill="#B5B5B5" stroke="#fff" stroke-width=".5"><path d="M14.063 6.61h-1.267V3.717C12.796 1.668 11.092 0 8.999 0 6.905 0 5.202 1.668 5.202 3.718V6.61H3.938c-1.164 0-2.11.947-2.11 2.11v7.172c0 1.163.946 2.109 2.11 2.109h10.124c1.164 0 2.11-.946 2.11-2.11V8.72c0-1.163-.946-2.11-2.11-2.11zM6.607 3.717c0-1.275 1.073-2.312 2.39-2.312 1.319 0 2.391 1.037 2.391 2.312V6.61H6.61V3.72zm8.158 12.173a.704.704 0 01-.704.703H3.938a.704.704 0 01-.704-.703V8.719c0-.388.316-.703.704-.703h10.124c.388 0 .704.315.704.703v7.172z"/><path d="M9 10.055a1.3 1.3 0 00-.704 2.394v1.543a.703.703 0 001.406 0V12.45A1.3 1.3 0 009 10.055z"/></g><defs><clipPath id="clip0"><path fill="#fff" d="M0 0h18v18H0z"/></clipPath></defs></svg>