<svg width="14" height="14" fill="none" xmlns="http://www.w3.org/2000/svg"><g clip-path="url(#clip0)" fill="#000"><path d="M7.875 14H1.458A1.46 1.46 0 010 12.542V1.458A1.46 1.46 0 011.458 0h6.417a1.46 1.46 0 011.458 1.458v3.5a.292.292 0 01-.583 0v-3.5a.876.876 0 00-.875-.875H1.458a.876.876 0 00-.875.875v11.084c0 .482.393.875.875.875h6.417a.876.876 0 00.875-.875v-3.5a.292.292 0 01.583 0v3.5A1.46 1.46 0 017.875 14z"/><path d="M13.709 7.291h-8.75a.292.292 0 010-.583h8.75a.292.292 0 010 .583z"/><path d="M11.375 9.625a.292.292 0 01-.207-.498L13.296 7l-2.127-2.127a.292.292 0 01.412-.413l2.334 2.334a.292.292 0 010 .412L11.58 9.54a.293.293 0 01-.206.086z"/></g><defs><clipPath id="clip0"><path fill="#fff" d="M0 0h14v14H0z"/></clipPath></defs></svg>