<svg width="19" height="19" fill="none" xmlns="http://www.w3.org/2000/svg"><g clip-path="url(#clip0)" fill="#000"><path d="M.397 3.531C3.004 5.74 7.58 9.625 8.925 10.836c.18.164.374.247.575.247.2 0 .394-.082.574-.245 1.346-1.213 5.922-5.098 8.53-7.307a.395.395 0 00.055-.546 1.572 1.572 0 00-1.242-.61H1.583c-.485 0-.938.222-1.242.61a.396.396 0 00.056.546zM18.77 4.728a.394.394 0 00-.422.057 1136.33 1136.33 0 00-5.655 4.82.396.396 0 00.011.61c1.577 1.262 3.953 3 5.67 4.234a.394.394 0 00.41.03.396.396 0 00.216-.351v-9.04a.396.396 0 00-.23-.36zM.627 14.449c1.716-1.235 4.093-2.972 5.67-4.235a.395.395 0 00.01-.609C4.61 8.145 2.36 6.233.652 4.785A.396.396 0 000 5.087v9.04a.396.396 0 00.627.322z"/><path d="M18.515 15.525c-1.657-1.185-4.71-3.395-6.532-4.874a.397.397 0 00-.51.008c-.357.313-.656.575-.869.766-.651.589-1.556.589-2.21 0-.21-.191-.51-.455-.867-.766a.394.394 0 00-.51-.008c-1.816 1.473-4.872 3.687-6.531 4.874a.397.397 0 00-.06.592c.3.323.722.508 1.157.508h15.834c.435 0 .857-.185 1.157-.508a.396.396 0 00-.06-.592z"/></g><defs><clipPath id="clip0"><path fill="#fff" d="M0 0h19v19H0z"/></clipPath></defs></svg>