<svg xmlns="http://www.w3.org/2000/svg" viewBox="0 0 57.02 56.72"><path d="M45.69 17.12c.17-.06.39.05.62.36l10.26 10a1.29 1.29 0 010 2L46.31 39.57c-.23.28-.45.36-.62.28a.83.83 0 01-.29-.74V17.77c0-.37.12-.6.29-.65zM28.14.48h.74l.68.28 10.57 10.46c.46.6.28 1-.45 1h-4.4a1.38 1.38 0 00-1.36 1.36v7.77a1.38 1.38 0 01-1.5 1.33h-7.68a1.34 1.34 0 01-1.36-1.33V13.6A1.36 1.36 0 0022 12.24h-4.66c-.76 0-.91-.42-.45-1L27.46.76l.68-.28zM11.61 16.89a.83.83 0 01.29.74V39.4c0 .39-.11.62-.29.68s-.45 0-.76-.23L.45 29.42a1.29 1.29 0 010-2l10.4-10.29c.31-.28.57-.37.76-.28zM24.74 34h7.68A1.4 1.4 0 0134 35.4v8.19a1.38 1.38 0 001.33 1.5h4.09c.76 0 1 .43.45.88L29.56 56.26a1.48 1.48 0 01-1 .46 1.43 1.43 0 01-1.05-.46L17.2 46c-.62-.45-.31-.88.42-.88H22a1.38 1.38 0 001.36-1.5V35.4a1.34 1.34 0 011.38-1.4z" fill="#ed1c24" fill-rule="evenodd"/></svg>