<svg width="18" height="18" fill="none" xmlns="http://www.w3.org/2000/svg"><path d="M16.556 11.815c-1.102 0-2.184-.172-3.21-.511a1.517 1.517 0 00-1.214.135c-.154.092-.285.22-.428.328-1.103.833-2.623.993-3.718.15a10.301 10.301 0 01-1.782-1.744c-.94-1.175-.76-2.837.146-4.04.385-.384.523-.946.357-1.474a10.235 10.235 0 01-.513-3.215C6.194.648 5.546 0 4.75 0H1.444C.648 0 0 .648 0 1.444 0 10.574 7.427 18 16.556 18c.796 0 1.444-.648 1.444-1.444v-3.297c0-.796-.648-1.444-1.444-1.444z" fill="#000"/></svg>