<svg width="25" height="25" fill="none" xmlns="http://www.w3.org/2000/svg"><path d="M12.504 0c-5.374 0-9.73 4.357-9.73 9.73 0 4.19 5.912 10.854 8.52 13.588a1.671 1.671 0 002.421 0c2.608-2.734 8.52-9.398 8.52-13.587C22.236 4.357 17.88 0 12.506 0zm0 13.432a3.702 3.702 0 110-7.403 3.702 3.702 0 010 7.403z" fill="url(#paint0_linear)"/><path d="M12.504 3.848a5.883 5.883 0 100 11.765 5.883 5.883 0 000-11.765zm0 9.584a3.702 3.702 0 110-7.403 3.702 3.702 0 010 7.403z" fill="url(#paint1_linear)"/><defs><linearGradient id="paint0_linear" x1="9.131" y1="6.877" x2="18.868" y2="16.614" gradientUnits="userSpaceOnUse"><stop stop-color="#FF4C54"/><stop offset="1" stop-color="#BE3F45"/></linearGradient><linearGradient id="paint1_linear" x1="14.697" y1="7.537" x2="8.341" y2="13.894" gradientUnits="userSpaceOnUse"><stop stop-color="#FF4C54"/><stop offset="1" stop-color="#BE3F45"/></linearGradient></defs></svg>