<svg width="16" height="16" fill="none" xmlns="http://www.w3.org/2000/svg"><path d="M8.41 3.44a2.974 2.974 0 00-2.97 2.97 2.974 2.974 0 002.97 2.97 2.974 2.974 0 002.97-2.97 2.974 2.974 0 00-2.97-2.97zm0 4.69c-.948 0-1.72-.772-1.72-1.72s.772-1.72 1.72-1.72 1.72.772 1.72 1.72-.772 1.72-1.72 1.72z" fill="#B5B5B5"/><path d="M8.41 0A6.417 6.417 0 002 6.41v.177c0 1.788 1.025 3.87 3.046 6.191a26.347 26.347 0 002.97 2.904L8.41 16l.393-.318c.06-.049 1.505-1.222 2.97-2.904 2.022-2.32 3.047-4.403 3.047-6.19V6.41A6.417 6.417 0 008.41 0zm5.159 6.587c0 3.02-3.892 6.678-5.16 7.788-1.266-1.11-5.158-4.767-5.158-7.788V6.41A5.165 5.165 0 018.41 1.25a5.165 5.165 0 015.159 5.16v.177z" fill="#B5B5B5"/></svg>