<svg width="180" height="180" fill="none" xmlns="http://www.w3.org/2000/svg"><rect width="180" height="180" rx="90" fill="#F3F3F3"/><path d="M130.28 48.78H49.078c-3.26 0-5.905 2.777-5.905 6.203v63.587c0 3.426 2.644 6.203 5.905 6.203h81.202c3.262 0 5.906-2.777 5.906-6.203V54.983c0-3.426-2.644-6.204-5.906-6.204zm0 6.203V100.1l-11.638-11.115c-1.75-1.67-4.44-1.604-6.111.153l-11.779 12.372-23.225-29.142c-1.755-2.202-4.971-2.224-6.753-.048L49.078 98.807V54.983h81.202zm-25.098 16.284c0-4.711 3.634-8.53 8.12-8.53 4.485 0 8.12 3.819 8.12 8.53 0 4.712-3.635 8.53-8.12 8.53-4.486 0-8.12-3.818-8.12-8.53z" fill="#DDD"/></svg>