<svg width="90" height="106" fill="none" xmlns="http://www.w3.org/2000/svg"><path d="M50.875 58.143c-16.03 0-29.071-13.042-29.071-29.072S34.846 0 50.875 0c16.03 0 29.072 13.041 29.072 29.071S66.904 58.143 50.874 58.143zm0-50.875c-12.023 0-21.803 9.78-21.803 21.803 0 12.024 9.78 21.804 21.803 21.804 12.023 0 21.804-9.78 21.804-21.804 0-12.023-9.78-21.803-21.804-21.803zm47.241 109.017H3.634A3.632 3.632 0 010 112.651V87.636c0-3.755 1.92-7.282 5.007-9.213 27.29-17.023 64.47-17.02 91.732-.003 3.09 1.934 5.011 5.461 5.011 9.216v25.015a3.632 3.632 0 01-3.634 3.634zm-90.848-7.268h87.214V87.636c0-1.267-.61-2.438-1.594-3.052-24.95-15.575-59.058-15.586-84.03.004-.98.61-1.59 1.781-1.59 3.048v21.381z" fill="#fff" fill-opacity=".1"/></svg>