<svg width="21" height="24" fill="none" xmlns="http://www.w3.org/2000/svg"><path d="M10.625 12a5.506 5.506 0 01-5.5-5.5c0-3.033 2.467-5.5 5.5-5.5s5.5 2.467 5.5 5.5-2.467 5.5-5.5 5.5zm0-9.625A4.13 4.13 0 006.5 6.5a4.13 4.13 0 004.125 4.125A4.13 4.13 0 0014.75 6.5a4.13 4.13 0 00-4.125-4.125zM19.563 23H1.688A.687.687 0 011 22.312V17.58c0-.71.363-1.378.947-1.743 5.163-3.22 12.197-3.22 17.355 0a2.06 2.06 0 01.948 1.743v4.733c0 .38-.307.687-.688.687zM2.375 21.625h16.5V17.58a.678.678 0 00-.301-.577c-4.721-2.947-11.174-2.95-15.898 0a.677.677 0 00-.301.577v4.045z" fill="#7B7B7B" stroke="#fff" stroke-width=".5"/></svg>