<svg width="24" height="23" fill="none" xmlns="http://www.w3.org/2000/svg"><path d="M23.896 11.724l.003-.002.001.03a4.142 4.142 0 01-4.14 4.14 4.142 4.142 0 01-4.14-4.14.35.35 0 01.03-.151h0v-.004l3.425-8.57.055-.137h-6.764v15.968l.092.007c1.2.091 2.265.501 3.027 1.104.762.603 1.216 1.394 1.216 2.252 0 .225-.184.41-.41.41H7.62a.412.412 0 01-.41-.41c0-.858.454-1.65 1.216-2.252.762-.603 1.826-1.013 3.027-1.104l.092-.007V2.89H4.851l.055.138 3.443 8.57a.411.411 0 01.031.153 4.142 4.142 0 01-4.14 4.14 4.142 4.142 0 01-4.14-4.14c0-.057.01-.107.03-.15h0l.001-.004 3.45-8.563.055-.137H1.849a.412.412 0 01-.41-.41c0-.226.185-.41.41-.41h9.696V.51c0-.225.185-.41.41-.41.226 0 .41.185.41.41v1.573h9.703c.225 0 .41.185.41.41 0 .225-.185.41-.41.41h-1.716l.055.137 3.443 8.57.046.114zM1.194 11.2a.862.862 0 00-.05.076 1.51 1.51 0 00-.112.232 1.36 1.36 0 00-.065.78 3.314 3.314 0 003.273 2.79h.001a3.327 3.327 0 003.254-2.793l.002-.01v-.011l-.1.005.1-.006h0v-.002l-.001-.006-.002-.024a5.737 5.737 0 00-.036-.375c-.027-.215-.074-.484-.155-.648L4.339 3.814l-.092-.232-.093.232-2.96 7.385zm14.498 10.606h.14l-.046-.133c-.199-.58-.705-1.083-1.38-1.44-.677-.357-1.533-.572-2.45-.572-.918 0-1.774.215-2.451.573-.676.356-1.182.859-1.38 1.44l-.046.132h7.613zM16.68 11.2a.81.81 0 00-.048.078c-.031.056-.07.135-.105.234-.07.196-.12.47-.041.776a3.322 3.322 0 003.253 2.796h.1v-.008a3.33 3.33 0 003.174-2.79l.002-.006.005-.026a1.867 1.867 0 00.03-.394c-.005-.217-.054-.502-.262-.674l-2.956-7.372-.092-.231-.093.23L16.68 11.2z" fill="#B5B5B5" stroke="#CBCBCB" stroke-width=".2"/></svg>