<svg width="22" height="22" fill="none" xmlns="http://www.w3.org/2000/svg"><g clip-path="url(#clip0)"><path d="M21.866 21.218l-6.694-6.694a8.663 8.663 0 002.245-5.816C17.417 3.907 13.51 0 8.708 0 3.907 0 0 3.907 0 8.708c0 4.802 3.907 8.709 8.708 8.709a8.663 8.663 0 005.816-2.245l6.694 6.694a.457.457 0 00.648 0 .458.458 0 000-.648zM8.708 16.5C4.412 16.5.917 13.005.917 8.708.917 4.412 4.412.917 8.708.917S16.5 4.412 16.5 8.708c0 4.297-3.496 7.792-7.792 7.792z" fill="#7B7B7B"/></g><defs><clipPath id="clip0"><path fill="#fff" d="M0 0h22v22H0z"/></clipPath></defs></svg>