<svg width="13" height="12" fill="none" xmlns="http://www.w3.org/2000/svg"><path d="M7.703.139A.496.496 0 007.17.037a.477.477 0 00-.3.44v2.546c-2.634.102-3.953 1.17-4.155 1.348A7.205 7.205 0 00.15 8.575a7.248 7.248 0 00-.087 2.423V11a.83.83 0 00.004.02l.103.584a.492.492 0 00.899.164l.31-.507c.955-1.552 2.144-2.58 3.535-3.057a5.227 5.227 0 011.957-.281v2.636c0 .194.119.368.301.441a.496.496 0 00.532-.104l5.154-5.067a.47.47 0 00-.002-.675L7.703.14zm.143 9.265v-1.91a.48.48 0 00-.41-.47 6.092 6.092 0 00-2.845.28c-1.403.481-2.616 1.427-3.616 2.817a6.652 6.652 0 01.132-1.36c.297-1.467 1.05-2.698 2.238-3.66a.447.447 0 00.03-.027c.034-.03 1.272-1.125 3.98-1.105h.003c.27 0 .488-.214.488-.477V1.625l3.977 3.87-3.977 3.91z" fill="#000"/></svg>