<svg width="0" height="0" class="hidden"><symbol xmlns="http://www.w3.org/2000/svg" viewBox="0 0 10 20" id="arrow"><path d="M9.884 10.288L.718 19.872a.417.417 0 01-.603-.577c4.973-5.199 4.973-13.391 0-18.59A.417.417 0 01.718.129l9.166 9.583a.417.417 0 010 .576z" fill="currentColor"/></symbol><symbol fill="none" xmlns="http://www.w3.org/2000/svg" viewBox="0 0 12 6" id="arrow2"><path d="M5.827 5.93L.077.43A.25.25 0 01.423.07L6 5.403 11.577.069a.25.25 0 01.346.362l-5.75 5.5a.25.25 0 01-.346 0z" fill="#7B7B7B"/></symbol><symbol fill="none" xmlns="http://www.w3.org/2000/svg" viewBox="0 0 20 20" id="delivery-truck"><g clip-path="url(#clip0)"><path d="M19.878 8.455L15.71 4.29a.417.417 0 00-.294-.122h-3.75v-1.25a.416.416 0 00-.417-.417H1.667A1.666 1.666 0 000 4.167v10.416c0 .69.56 1.25 1.25 1.25h.987A2.496 2.496 0 004.583 17.5a2.496 2.496 0 002.347-1.667h6.14a2.496 2.496 0 002.347 1.667 2.496 2.496 0 002.346-1.667h.57c.92 0 1.667-.747 1.667-1.666V8.75a.416.416 0 00-.122-.295zM4.583 16.667A1.668 1.668 0 116.25 15c0 .92-.747 1.667-1.667 1.667zm10.834 0c-.92 0-1.667-.748-1.667-1.667 0-.92.748-1.667 1.667-1.667s1.666.748 1.666 1.667c0 .92-.747 1.667-1.666 1.667zm2.5-6.667H13.75a.416.416 0 01-.417-.417V6.25a.416.416 0 11.834 0v2.917h3.75a.416.416 0 110 .833z" fill="url(#paint0_linear)"/></g><defs><linearGradient id="paint0_linear" x1="20" y1="2.5" x2="-1.119" y2="4.289" gradientUnits="userSpaceOnUse"><stop stop-color="#F86476"/><stop offset=".656" stop-color="#FEA185"/></linearGradient><clipPath id="clip0"><path fill="#fff" d="M0 0h20v20H0z"/></clipPath></defs></symbol><symbol fill="none" xmlns="http://www.w3.org/2000/svg" viewBox="0 0 22 22" id="search"><g clip-path="url(#clip0)"><path d="M21.866 21.218l-6.694-6.694a8.663 8.663 0 002.245-5.816C17.417 3.907 13.51 0 8.708 0 3.907 0 0 3.907 0 8.708c0 4.802 3.907 8.709 8.708 8.709a8.663 8.663 0 005.816-2.245l6.694 6.694a.457.457 0 00.648 0 .458.458 0 000-.648zM8.708 16.5C4.412 16.5.917 13.005.917 8.708.917 4.412 4.412.917 8.708.917S16.5 4.412 16.5 8.708c0 4.297-3.496 7.792-7.792 7.792z" fill="#7B7B7B"/></g><defs><clipPath id="clip0"><path fill="#fff" d="M0 0h22v22H0z"/></clipPath></defs></symbol><symbol fill="none" xmlns="http://www.w3.org/2000/svg" viewBox="0 0 22 22" id="trolley"><g clip-path="url(#clip0)" fill="#7B7B7B"><path d="M20.39 2H4v.143l-.205-.703A2.01 2.01 0 001.875 0H.5a.5.5 0 100 1h1.375c.442 0 .836.296.96.72l3.112 10.67-1.594 1.994A1.612 1.612 0 005.61 17H19.5a.5.5 0 100-1H5.61a.611.611 0 01-.476-.992L6.74 13h9.807c.77 0 1.481-.45 1.81-1.148l3.49-7.415c.1-.213.152-.45.152-.685V3.61A1.61 1.61 0 0020.39 2zM21 3.752c0 .09-.02.18-.058.26l-3.489 7.414c-.164.348-.52.574-.905.574H6.875L4.25 3h16.14c.336 0 .61.274.61.61v.142zM6 18c-1.103 0-2 .897-2 2s.897 2 2 2 2-.897 2-2-.897-2-2-2zm0 3c-.551 0-1-.449-1-1 0-.551.449-1 1-1 .551 0 1 .449 1 1 0 .551-.449 1-1 1zm12-3c-1.103 0-2 .897-2 2s.897 2 2 2 2-.897 2-2-.897-2-2-2zm0 3c-.551 0-1-.449-1-1 0-.551.449-1 1-1 .551 0 1 .449 1 1 0 .551-.449 1-1 1z"/></g><defs><clipPath id="clip0"><path fill="#fff" d="M0 0h22v22H0z"/></clipPath></defs></symbol><symbol xmlns="http://www.w3.org/2000/svg" viewBox="0 0 24 23" id="scale"><path d="M23.896 11.724l.003-.002.001.03a4.142 4.142 0 01-4.14 4.14 4.142 4.142 0 01-4.14-4.14.35.35 0 01.03-.151h0v-.004l3.425-8.57.055-.137h-6.764v15.968l.092.007c1.2.091 2.265.501 3.027 1.104.762.603 1.216 1.394 1.216 2.252 0 .225-.184.41-.41.41H7.62a.412.412 0 01-.41-.41c0-.858.454-1.65 1.216-2.252.762-.603 1.826-1.013 3.027-1.104l.092-.007V2.89H4.851l.055.138 3.443 8.57a.411.411 0 01.031.153 4.142 4.142 0 01-4.14 4.14 4.142 4.142 0 01-4.14-4.14c0-.057.01-.107.03-.15h0l.001-.004 3.45-8.563.055-.137H1.849a.412.412 0 01-.41-.41c0-.226.185-.41.41-.41h9.696V.51c0-.225.185-.41.41-.41.226 0 .41.185.41.41v1.573h9.703c.225 0 .41.185.41.41 0 .225-.185.41-.41.41h-1.716l.055.137 3.443 8.57.046.114zM1.194 11.2a.862.862 0 00-.05.076 1.51 1.51 0 00-.112.232 1.36 1.36 0 00-.065.78 3.314 3.314 0 003.273 2.79h.001a3.327 3.327 0 003.254-2.793l.002-.01v-.011l-.1.005.1-.006h0v-.002l-.001-.006-.002-.024a5.737 5.737 0 00-.036-.375c-.027-.215-.074-.484-.155-.648L4.339 3.814l-.092-.232-.093.232-2.96 7.385zm14.498 10.606h.14l-.046-.133c-.199-.58-.705-1.083-1.38-1.44-.677-.357-1.533-.572-2.45-.572-.918 0-1.774.215-2.451.573-.676.356-1.182.859-1.38 1.44l-.046.132h7.613zM16.68 11.2a.81.81 0 00-.048.078c-.031.056-.07.135-.105.234-.07.196-.12.47-.041.776a3.322 3.322 0 003.253 2.796h.1v-.008a3.33 3.33 0 003.174-2.79l.002-.006.005-.026a1.867 1.867 0 00.03-.394c-.005-.217-.054-.502-.262-.674l-2.956-7.372-.092-.231-.093.23L16.68 11.2z" fill="currentColor" stroke="#CBCBCB" stroke-width=".2"/></symbol><symbol xmlns="http://www.w3.org/2000/svg" viewBox="0 0 21 24" id="profile"><path d="M10.625 12a5.506 5.506 0 01-5.5-5.5c0-3.033 2.467-5.5 5.5-5.5s5.5 2.467 5.5 5.5-2.467 5.5-5.5 5.5zm0-9.625A4.13 4.13 0 006.5 6.5a4.13 4.13 0 004.125 4.125A4.13 4.13 0 0014.75 6.5a4.13 4.13 0 00-4.125-4.125zM19.563 23H1.688A.687.687 0 011 22.312V17.58c0-.71.363-1.378.947-1.743 5.163-3.22 12.197-3.22 17.355 0a2.06 2.06 0 01.948 1.743v4.733c0 .38-.307.687-.688.687zM2.375 21.625h16.5V17.58a.678.678 0 00-.301-.577c-4.721-2.947-11.174-2.95-15.898 0a.677.677 0 00-.301.577v4.045z" fill="currentColor" stroke="#fff" stroke-width=".5"/></symbol><symbol xmlns="http://www.w3.org/2000/svg" viewBox="0 0 14 14" id="star"><g clip-path="url(#clip0)"><path d="M13.2 5.048l-4.747-.312L6.665.244 4.876 4.736l-4.742.312 3.637 3.09-1.193 4.684 4.087-2.583 4.086 2.583-1.193-4.685L13.2 5.048z" fill="#FFC700"/></g><defs><clipPath id="clip0"><path fill="#fff" transform="translate(.134)" d="M0 0h13.067v13.067H0z"/></clipPath></defs></symbol><symbol fill="none" xmlns="http://www.w3.org/2000/svg" viewBox="0 0 36 34" id="document"><path d="M34.945 7.312H26.93V1.055C26.93.472 26.457 0 25.875 0H1.055C.472 0 0 .472 0 1.055v27.28a5.28 5.28 0 005.273 5.274h25.454A5.28 5.28 0 0036 28.336V8.367c0-.582-.472-1.055-1.055-1.055zM5.273 31.5a3.168 3.168 0 01-3.164-3.164V2.109H24.82c0 27.877-.013 26.327.024 26.724a5.26 5.26 0 001.034 2.667H5.273zm28.618-3.164a3.168 3.168 0 01-3.164 3.164h-.633a3.168 3.168 0 01-3.164-3.164V9.422h6.96v18.914z" fill="url(#paint0_linear)"/><path d="M21.375 5.062H5.625a1.055 1.055 0 000 2.11h15.75a1.055 1.055 0 000-2.11z" fill="url(#paint1_linear)"/><path d="M21.375 9.562H5.625a1.055 1.055 0 000 2.11h15.75a1.055 1.055 0 000-2.11z" fill="url(#paint2_linear)"/><path d="M21.375 26.437H5.625a1.055 1.055 0 000 2.11h15.75a1.055 1.055 0 000-2.11z" fill="url(#paint3_linear)"/><path d="M21.375 14.062H13.5c-.582 0-1.055.473-1.055 1.055v7.875c0 .582.473 1.055 1.055 1.055h7.875c.582 0 1.055-.473 1.055-1.055v-7.875c0-.582-.473-1.055-1.055-1.055zm-1.055 7.875h-5.765v-5.765h5.765v5.765z" fill="url(#paint4_linear)"/><path d="M5.625 17.86H9a1.055 1.055 0 000-2.11H5.625a1.055 1.055 0 000 2.11z" fill="url(#paint5_linear)"/><path d="M5.625 22.36H9a1.055 1.055 0 000-2.11H5.625a1.055 1.055 0 000 2.11z" fill="url(#paint6_linear)"/><defs><linearGradient id="paint0_linear" x1="36" y1="0" x2="-2.111" y2="2.594" gradientUnits="userSpaceOnUse"><stop stop-color="#F86476"/><stop offset=".342" stop-color="#FEA185"/></linearGradient><linearGradient id="paint1_linear" x1="22.43" y1="5.062" x2="7.699" y2="12.988" gradientUnits="userSpaceOnUse"><stop stop-color="#F86476"/><stop offset=".342" stop-color="#FEA185"/></linearGradient><linearGradient id="paint2_linear" x1="22.43" y1="9.562" x2="7.699" y2="17.488" gradientUnits="userSpaceOnUse"><stop stop-color="#F86476"/><stop offset=".342" stop-color="#FEA185"/></linearGradient><linearGradient id="paint3_linear" x1="22.43" y1="26.437" x2="7.699" y2="34.363" gradientUnits="userSpaceOnUse"><stop stop-color="#F86476"/><stop offset=".342" stop-color="#FEA185"/></linearGradient><linearGradient id="paint4_linear" x1="22.43" y1="14.062" x2="11.854" y2="14.735" gradientUnits="userSpaceOnUse"><stop stop-color="#F86476"/><stop offset=".342" stop-color="#FEA185"/></linearGradient><linearGradient id="paint5_linear" x1="10.055" y1="15.75" x2="4.377" y2="16.688" gradientUnits="userSpaceOnUse"><stop stop-color="#F86476"/><stop offset=".342" stop-color="#FEA185"/></linearGradient><linearGradient id="paint6_linear" x1="10.055" y1="20.25" x2="4.377" y2="21.188" gradientUnits="userSpaceOnUse"><stop stop-color="#F86476"/><stop offset=".342" stop-color="#FEA185"/></linearGradient></defs></symbol><symbol fill="none" xmlns="http://www.w3.org/2000/svg" viewBox="0 0 36 36" id="gift"><g clip-path="url(#clip0)"><path d="M32.478 7.012H31.08a4.63 4.63 0 00.617-2.312A4.604 4.604 0 0028.924.44a4.603 4.603 0 00-5.017.808l-2.953 2.676A3.521 3.521 0 0018 2.316a3.52 3.52 0 00-2.957 1.613l-2.958-2.681A4.603 4.603 0 007.067.44 4.603 4.603 0 004.296 4.7c0 .84.226 1.629.617 2.31H3.522A3.526 3.526 0 000 10.534v4.696c0 .648.526 1.174 1.174 1.174h1.174v16.044a3.526 3.526 0 003.522 3.521h24.26a3.526 3.526 0 003.522-3.522V16.404h1.174c.648 0 1.174-.525 1.174-1.174v-4.696a3.526 3.526 0 00-3.522-3.521zm-18 26.608H5.87a1.175 1.175 0 01-1.174-1.173V16.402h9.782V33.62zm0-19.565H2.348v-3.522c0-.647.526-1.174 1.174-1.174h10.956v4.696zM8.956 7.012A2.314 2.314 0 016.644 4.7c0-.941.514-1.731 1.375-2.113.314-.14.638-.208.956-.208.553 0 1.09.207 1.533.608l4.44 4.025H8.957zM18 4.664c.554 0 1.018.386 1.141.903l-1.145 1.038-1.139-1.032c.12-.52.587-.91 1.143-.91zm1.174 28.956h-2.348V16.403h2.348V33.62zm0-19.565h-2.348V9.36h2.348v4.696zm6.31-11.068a2.256 2.256 0 012.49-.4A2.255 2.255 0 0129.347 4.7a2.314 2.314 0 01-2.312 2.312h-5.992l4.44-4.025zm5.82 29.46c0 .647-.526 1.173-1.174 1.173h-8.608V16.404h9.782v16.044zm2.348-18.392h-12.13V9.36h10.956c.648 0 1.174.527 1.174 1.174v3.522z" fill="url(#paint0_linear)"/></g><defs><linearGradient id="paint0_linear" x1="36" y1=".031" x2="-2.133" y2="2.459" gradientUnits="userSpaceOnUse"><stop stop-color="#F86476"/><stop offset=".342" stop-color="#FEA185"/></linearGradient><clipPath id="clip0"><path fill="#fff" d="M0 0h36v36H0z"/></clipPath></defs></symbol><symbol fill="none" xmlns="http://www.w3.org/2000/svg" viewBox="0 0 38 38" id="sticker"><g clip-path="url(#clip0)"><path d="M12.441 14.31c-.614 0-1.113.498-1.113 1.113v3.036L9.23 14.862a1.113 1.113 0 00-2.075.56v7.155a1.113 1.113 0 102.226 0V19.54l2.099 3.598c.11.19.543.706 1.252.514.486-.131.823-.572.823-1.075v-7.154c0-.615-.498-1.114-1.114-1.114z" fill="url(#paint0_linear)"/><path d="M30.526 14.327a1.114 1.114 0 00-1.293.897l-.557 3.08-1.176-3.26a1.113 1.113 0 00-2.094 0l-1.18 3.26-.553-3.079a1.114 1.114 0 00-2.191.395l1.288 7.154a1.113 1.113 0 002.142.182l1.54-4.257 1.535 4.256c.16.444.581.735 1.047.735.767 0 1.047-.647 1.096-.915l1.294-7.154a1.114 1.114 0 00-.898-1.294z" fill="url(#paint1_linear)"/><path d="M19.596 16.536a1.113 1.113 0 100-2.227H16.02c-.615 0-1.113.499-1.113 1.114v7.154c0 .615.498 1.113 1.113 1.113h3.577a1.113 1.113 0 100-2.226h-2.464v-1.35H19a1.113 1.113 0 100-2.227h-1.868v-1.351h2.464z" fill="url(#paint2_linear)"/><path d="M38 19c0-.895-.311-1.77-.875-2.464l-1.594-1.964.398-2.5c.334-2.087-1.002-3.711-2.466-4.27l-2.367-.906-.901-2.357a3.91 3.91 0 00-4.27-2.47l-2.5.4L21.464.875a3.902 3.902 0 00-4.927-.001l-1.964 1.594-2.5-.398c-2.086-.334-3.711 1.002-4.27 2.466l-.905 2.366-2.358.902a3.91 3.91 0 00-2.469 4.27l.398 2.499-1.592 1.963a3.902 3.902 0 00-.001 4.927l1.594 1.964-.398 2.5c-.334 2.086 1.002 3.711 2.466 4.27l2.367.905.901 2.358a3.91 3.91 0 004.27 2.469l2.5-.398 1.962 1.592a3.9 3.9 0 004.927 0l1.964-1.593 2.5.398c2.086.333 3.711-1.002 4.27-2.466l.905-2.367 2.358-.901a3.91 3.91 0 002.469-4.27l-.398-2.5 1.592-1.962A3.9 3.9 0 0038 19zm-2.603 1.058l-1.746 2.152a1.693 1.693 0 00-.356 1.33l.436 2.736c.105.657-.2 1.512-1.061 1.838l-2.588.99c-.004 0-.009.003-.013.004a1.697 1.697 0 00-.961.974l-.99 2.586c-.238.623-.93 1.208-1.84 1.062l-2.736-.435a1.675 1.675 0 00-1.337.361l-2.144 1.741a1.68 1.68 0 01-2.119 0l-2.152-1.746-.02-.015a1.693 1.693 0 00-1.31-.34l-2.737.435c-.656.105-1.512-.2-1.837-1.061l-.99-2.588-.005-.013a1.698 1.698 0 00-.973-.961l-2.586-.99c-.623-.238-1.208-.93-1.062-1.839l.435-2.737.002-.01a1.675 1.675 0 00-.363-1.326L2.603 20.06a1.678 1.678 0 010-2.117l1.746-2.153.015-.02c.433-.559.37-1.135.34-1.31l-.435-2.737c-.105-.656.2-1.511 1.06-1.837l2.589-.99.013-.005c.397-.157.778-.487.961-.973l.99-2.586c.238-.623.93-1.207 1.839-1.062l2.737.435.01.001a1.675 1.675 0 001.326-.362l2.145-1.741a1.678 1.678 0 012.118 0l2.153 1.746.02.015c.558.433 1.135.37 1.31.34l2.737-.435c.656-.105 1.511.2 1.837 1.061l.99 2.588a1.697 1.697 0 00.979.974l2.585.99c.623.238 1.207.93 1.062 1.839l-.435 2.737-.002.01a1.675 1.675 0 00.363 1.326l1.74 2.145c.5.613.506 1.5.001 2.119z" fill="url(#paint3_linear)"/></g><defs><linearGradient id="paint0_linear" x1="13.555" y1="14.309" x2="6.761" y2="14.604" gradientUnits="userSpaceOnUse"><stop stop-color="#F86476"/><stop offset=".342" stop-color="#FEA185"/></linearGradient><linearGradient id="paint1_linear" x1="31.442" y1="14.309" x2="20.878" y2="15.023" gradientUnits="userSpaceOnUse"><stop stop-color="#F86476"/><stop offset=".342" stop-color="#FEA185"/></linearGradient><linearGradient id="paint2_linear" x1="20.709" y1="14.309" x2="14.546" y2="14.552" gradientUnits="userSpaceOnUse"><stop stop-color="#F86476"/><stop offset=".342" stop-color="#FEA185"/></linearGradient><linearGradient id="paint3_linear" x1="38" y1="0" x2="-2.252" y2="2.558" gradientUnits="userSpaceOnUse"><stop stop-color="#F86476"/><stop offset=".342" stop-color="#FEA185"/></linearGradient><clipPath id="clip0"><path fill="#fff" d="M0 0h38v38H0z"/></clipPath></defs></symbol><symbol xmlns="http://www.w3.org/2000/svg" viewBox="0 0 18 18" id="phone"><path d="M16.556 11.815c-1.102 0-2.184-.172-3.21-.511a1.517 1.517 0 00-1.214.135c-.154.092-.285.22-.428.328-1.103.833-2.623.993-3.718.15a10.301 10.301 0 01-1.782-1.744c-.94-1.175-.76-2.837.146-4.04.385-.384.523-.946.357-1.474a10.235 10.235 0 01-.513-3.215C6.194.648 5.546 0 4.75 0H1.444C.648 0 0 .648 0 1.444 0 10.574 7.427 18 16.556 18c.796 0 1.444-.648 1.444-1.444v-3.297c0-.796-.648-1.444-1.444-1.444z" fill="currentColor"/></symbol><symbol xmlns="http://www.w3.org/2000/svg" viewBox="0 0 19 19" id="mail"><g clip-path="url(#clip0)" fill="currentColor"><path d="M.397 3.531C3.004 5.74 7.58 9.625 8.925 10.836c.18.164.374.247.575.247.2 0 .394-.082.574-.245 1.346-1.213 5.922-5.098 8.53-7.307a.395.395 0 00.055-.546 1.572 1.572 0 00-1.242-.61H1.583c-.485 0-.938.222-1.242.61a.396.396 0 00.056.546zM18.77 4.728a.394.394 0 00-.422.057 1136.33 1136.33 0 00-5.655 4.82.396.396 0 00.011.61c1.577 1.262 3.953 3 5.67 4.234a.394.394 0 00.41.03.396.396 0 00.216-.351v-9.04a.396.396 0 00-.23-.36zM.627 14.449c1.716-1.235 4.093-2.972 5.67-4.235a.395.395 0 00.01-.609C4.61 8.145 2.36 6.233.652 4.785A.396.396 0 000 5.087v9.04a.396.396 0 00.627.322z"/><path d="M18.515 15.525c-1.657-1.185-4.71-3.395-6.532-4.874a.397.397 0 00-.51.008c-.357.313-.656.575-.869.766-.651.589-1.556.589-2.21 0-.21-.191-.51-.455-.867-.766a.394.394 0 00-.51-.008c-1.816 1.473-4.872 3.687-6.531 4.874a.397.397 0 00-.06.592c.3.323.722.508 1.157.508h15.834c.435 0 .857-.185 1.157-.508a.396.396 0 00-.06-.592z"/></g><defs><clipPath id="clip0"><path fill="#fff" d="M0 0h19v19H0z"/></clipPath></defs></symbol><symbol fill="none" xmlns="http://www.w3.org/2000/svg" viewBox="0 0 12 12" id="calendar"><g clip-path="url(#clip0)" fill="#7B7B7B"><path d="M10.25 1h-.5a.25.25 0 000 .5h.5c.69 0 1.25.56 1.25 1.25v7.5c0 .69-.56 1.25-1.25 1.25h-8.5c-.69 0-1.25-.56-1.25-1.25v-7.5c0-.69.56-1.25 1.25-1.25h.5a.25.25 0 000-.5h-.5C.785 1 0 1.785 0 2.75v7.5C0 11.215.785 12 1.75 12h8.5c.965 0 1.75-.785 1.75-1.75v-7.5C12 1.785 11.215 1 10.25 1z"/><path d="M7.75 1H4.248a.25.25 0 000 .5h3.5a.25.25 0 000-.5zm4 2.5H.25a.25.25 0 000 .5h11.5a.25.25 0 000-.5zM3.25 0A.25.25 0 003 .25v2a.25.25 0 00.5 0v-2A.25.25 0 003.25 0zm5.499 0a.25.25 0 00-.25.25v2a.25.25 0 00.5 0v-2a.25.25 0 00-.25-.25z"/></g><defs><clipPath id="clip0"><path fill="#fff" d="M0 0h12v12H0z"/></clipPath></defs></symbol><symbol xmlns="http://www.w3.org/2000/svg" xmlns:xlink="http://www.w3.org/1999/xlink" viewBox="0 0 20 11.8" id="eye"><defs><path id="a" d="M0-4.2h20v20H0z"/></defs><clipPath id="b"><use xlink:href="#a" overflow="visible"/></clipPath><g clip-path="url(#b)"><path d="M19.9 5.6C19.8 5.4 16 0 10 0 4.9 0 .3 5.3.1 5.6c-.1.1-.1.3 0 .5.2.2 4.8 5.6 9.9 5.6 5.1 0 9.7-5.3 9.9-5.6.1-.1.1-.3 0-.5zM10 10.8c-4.1 0-8-3.9-9-5 1-1.1 4.9-5 9-5 4.8 0 8.2 3.9 9 5-.9 1.1-4.8 5-9 5z"/><path d="M10 2.5C8.2 2.5 6.7 4 6.7 5.8c0 1.8 1.5 3.3 3.3 3.3 1.8 0 3.3-1.5 3.3-3.3 0-1.8-1.5-3.3-3.3-3.3zm0 5.8c-1.4 0-2.5-1.1-2.5-2.5S8.6 3.3 10 3.3s2.5 1.1 2.5 2.5-1.1 2.5-2.5 2.5z"/></g></symbol><symbol fill="none" xmlns="http://www.w3.org/2000/svg" viewBox="0 0 13 12" id="share"><path d="M7.703.139A.496.496 0 007.17.037a.477.477 0 00-.3.44v2.546c-2.634.102-3.953 1.17-4.155 1.348A7.205 7.205 0 00.15 8.575a7.248 7.248 0 00-.087 2.423V11a.83.83 0 00.004.02l.103.584a.492.492 0 00.899.164l.31-.507c.955-1.552 2.144-2.58 3.535-3.057a5.227 5.227 0 011.957-.281v2.636c0 .194.119.368.301.441a.496.496 0 00.532-.104l5.154-5.067a.47.47 0 00-.002-.675L7.703.14zm.143 9.265v-1.91a.48.48 0 00-.41-.47 6.092 6.092 0 00-2.845.28c-1.403.481-2.616 1.427-3.616 2.817a6.652 6.652 0 01.132-1.36c.297-1.467 1.05-2.698 2.238-3.66a.447.447 0 00.03-.027c.034-.03 1.272-1.125 3.98-1.105h.003c.27 0 .488-.214.488-.477V1.625l3.977 3.87-3.977 3.91z" fill="#000"/></symbol><symbol fill="none" xmlns="http://www.w3.org/2000/svg" viewBox="0 0 18 18" id="lock"><g clip-path="url(#clip0)" fill="#B5B5B5" stroke="#fff" stroke-width=".5"><path d="M14.063 6.61h-1.267V3.717C12.796 1.668 11.092 0 8.999 0 6.905 0 5.202 1.668 5.202 3.718V6.61H3.938c-1.164 0-2.11.947-2.11 2.11v7.172c0 1.163.946 2.109 2.11 2.109h10.124c1.164 0 2.11-.946 2.11-2.11V8.72c0-1.163-.946-2.11-2.11-2.11zM6.607 3.717c0-1.275 1.073-2.312 2.39-2.312 1.319 0 2.391 1.037 2.391 2.312V6.61H6.61V3.72zm8.158 12.173a.704.704 0 01-.704.703H3.938a.704.704 0 01-.704-.703V8.719c0-.388.316-.703.704-.703h10.124c.388 0 .704.315.704.703v7.172z"/><path d="M9 10.055a1.3 1.3 0 00-.704 2.394v1.543a.703.703 0 001.406 0V12.45A1.3 1.3 0 009 10.055z"/></g><defs><clipPath id="clip0"><path fill="#fff" d="M0 0h18v18H0z"/></clipPath></defs></symbol><symbol fill="none" xmlns="http://www.w3.org/2000/svg" viewBox="0 0 10 10" id="download"><path d="M9.219 6.113v2.715a.39.39 0 01-.39.39H1.171a.391.391 0 01-.39-.39V6.113H0v2.715C0 9.474.526 10 1.172 10h7.656C9.474 10 10 9.474 10 8.828V6.113h-.781z" fill="#fff"/><path d="M6.876 4.604L5.39 6.088V0h-.78v6.088L3.126 4.604l-.553.552 2.428 2.428 2.427-2.428-.552-.552z" fill="#fff"/></symbol><symbol fill="none" xmlns="http://www.w3.org/2000/svg" viewBox="0 0 14 14" id="logout"><g clip-path="url(#clip0)" fill="#000"><path d="M7.875 14H1.458A1.46 1.46 0 010 12.542V1.458A1.46 1.46 0 011.458 0h6.417a1.46 1.46 0 011.458 1.458v3.5a.292.292 0 01-.583 0v-3.5a.876.876 0 00-.875-.875H1.458a.876.876 0 00-.875.875v11.084c0 .482.393.875.875.875h6.417a.876.876 0 00.875-.875v-3.5a.292.292 0 01.583 0v3.5A1.46 1.46 0 017.875 14z"/><path d="M13.709 7.291h-8.75a.292.292 0 010-.583h8.75a.292.292 0 010 .583z"/><path d="M11.375 9.625a.292.292 0 01-.207-.498L13.296 7l-2.127-2.127a.292.292 0 01.412-.413l2.334 2.334a.292.292 0 010 .412L11.58 9.54a.293.293 0 01-.206.086z"/></g><defs><clipPath id="clip0"><path fill="#fff" d="M0 0h14v14H0z"/></clipPath></defs></symbol><symbol fill="none" xmlns="http://www.w3.org/2000/svg" viewBox="0 0 16 16" id="pin2"><path d="M8.41 3.44a2.974 2.974 0 00-2.97 2.97 2.974 2.974 0 002.97 2.97 2.974 2.974 0 002.97-2.97 2.974 2.974 0 00-2.97-2.97zm0 4.69c-.948 0-1.72-.772-1.72-1.72s.772-1.72 1.72-1.72 1.72.772 1.72 1.72-.772 1.72-1.72 1.72z" fill="#B5B5B5"/><path d="M8.41 0A6.417 6.417 0 002 6.41v.177c0 1.788 1.025 3.87 3.046 6.191a26.347 26.347 0 002.97 2.904L8.41 16l.393-.318c.06-.049 1.505-1.222 2.97-2.904 2.022-2.32 3.047-4.403 3.047-6.19V6.41A6.417 6.417 0 008.41 0zm5.159 6.587c0 3.02-3.892 6.678-5.16 7.788-1.266-1.11-5.158-4.767-5.158-7.788V6.41A5.165 5.165 0 018.41 1.25a5.165 5.165 0 015.159 5.16v.177z" fill="#B5B5B5"/></symbol><symbol xmlns="http://www.w3.org/2000/svg" viewBox="0 0 17 13" id="check"><path d="M2 6.5l3.5 5L15 2" stroke="currentColor" stroke-width="3" stroke-linecap="round" stroke-linejoin="round"/></symbol><symbol fill="none" xmlns="http://www.w3.org/2000/svg" viewBox="0 0 90 106" id="profile2"><path d="M50.875 58.143c-16.03 0-29.071-13.042-29.071-29.072S34.846 0 50.875 0c16.03 0 29.072 13.041 29.072 29.071S66.904 58.143 50.874 58.143zm0-50.875c-12.023 0-21.803 9.78-21.803 21.803 0 12.024 9.78 21.804 21.803 21.804 12.023 0 21.804-9.78 21.804-21.804 0-12.023-9.78-21.803-21.804-21.803zm47.241 109.017H3.634A3.632 3.632 0 010 112.651V87.636c0-3.755 1.92-7.282 5.007-9.213 27.29-17.023 64.47-17.02 91.732-.003 3.09 1.934 5.011 5.461 5.011 9.216v25.015a3.632 3.632 0 01-3.634 3.634zm-90.848-7.268h87.214V87.636c0-1.267-.61-2.438-1.594-3.052-24.95-15.575-59.058-15.586-84.03.004-.98.61-1.59 1.781-1.59 3.048v21.381z" fill="#fff" fill-opacity=".1"/></symbol><symbol fill="none" xmlns="http://www.w3.org/2000/svg" viewBox="0 0 8 8" id="cross"><path d="M4.183 3.999l3.78-3.78A.129.129 0 007.78.038L4 3.817.223.036A.129.129 0 00.039.22l3.78 3.779-3.78 3.779a.129.129 0 10.183.182L4 4.181l3.779 3.78a.129.129 0 00.182-.183l-3.779-3.78z" fill="#000"/></symbol><symbol xmlns="http://www.w3.org/2000/svg" viewBox="0 0 57.02 56.72" id="np-logo"><path d="M45.69 17.12c.17-.06.39.05.62.36l10.26 10a1.29 1.29 0 010 2L46.31 39.57c-.23.28-.45.36-.62.28a.83.83 0 01-.29-.74V17.77c0-.37.12-.6.29-.65zM28.14.48h.74l.68.28 10.57 10.46c.46.6.28 1-.45 1h-4.4a1.38 1.38 0 00-1.36 1.36v7.77a1.38 1.38 0 01-1.5 1.33h-7.68a1.34 1.34 0 01-1.36-1.33V13.6A1.36 1.36 0 0022 12.24h-4.66c-.76 0-.91-.42-.45-1L27.46.76l.68-.28zM11.61 16.89a.83.83 0 01.29.74V39.4c0 .39-.11.62-.29.68s-.45 0-.76-.23L.45 29.42a1.29 1.29 0 010-2l10.4-10.29c.31-.28.57-.37.76-.28zM24.74 34h7.68A1.4 1.4 0 0134 35.4v8.19a1.38 1.38 0 001.33 1.5h4.09c.76 0 1 .43.45.88L29.56 56.26a1.48 1.48 0 01-1 .46 1.43 1.43 0 01-1.05-.46L17.2 46c-.62-.45-.31-.88.42-.88H22a1.38 1.38 0 001.36-1.5V35.4a1.34 1.34 0 011.38-1.4z" fill="#ed1c24" fill-rule="evenodd"/></symbol><symbol fill="none" xmlns="http://www.w3.org/2000/svg" viewBox="0 0 23 23" id="delivery-box"><g clip-path="url(#clip0)" fill="#4F86EC"><path d="M15.448 1.848L5.011 7.192.862 5.15 11.116.088a.84.84 0 01.747 0l3.585 1.76zm6.677 3.302l-10.62 5.262-3.977-1.96-.575-.292 10.449-5.343.575.292 4.148 2.042zm-11.47 6.778L10.643 23 .472 17.692A.889.889 0 010 16.91V6.667l4.31 2.124v3.733c0 .479.392.875.863.875a.875.875 0 00.863-.875v-2.87l.575.28 4.044 1.994zm12.333-5.249L12.38 11.917l-.012 11.072L23 17.437l-.012-10.758z"/></g><defs><clipPath id="clip0"><path fill="#fff" d="M0 0h23v23H0z"/></clipPath></defs></symbol><symbol fill="none" xmlns="http://www.w3.org/2000/svg" viewBox="0 0 20 22" id="hand"><path d="M5.856 11.645h7.735a.644.644 0 00.644-.645V3.223a.644.644 0 00-.644-.645h-1.934v-.644A1.936 1.936 0 009.724 0 1.936 1.936 0 007.79 1.934v.644H5.856a.644.644 0 00-.644.645V11c0 .356.288.645.644.645zM9.08 1.934a.645.645 0 011.29 0v.644H9.08v-.644z" fill="#4F86EC"/><path d="M19.113 10.666a.645.645 0 00-.551-.31c-1.136 0-2.178.63-2.705 1.636l-1.977 3.773a1.93 1.93 0 01-1.713 1.036H7.79a.644.644 0 110-1.29h4.377a.64.64 0 00.571-.345l.739-1.41a.562.562 0 00-.498-.822h-6.7c-.86 0-1.67.335-2.278.944L.189 17.689a.644.644 0 000 .912l3.222 3.21a.643.643 0 00.912 0l2.445-2.432h5.399a4.501 4.501 0 003.997-2.418l2.968-5.661a.642.642 0 00-.019-.634z" fill="#4F86EC"/></symbol><symbol xmlns="http://www.w3.org/2000/svg" viewBox="0 0 17 17" id="cross2"><path d="M1.574 4.722l10.704 10.704c.868.868 2.28.868 3.148 0a2.228 2.228 0 000-3.148L4.722 1.574a2.228 2.228 0 00-3.148 0 2.228 2.228 0 000 3.148z" fill="currentColor"/><path d="M15.426 4.722L4.722 15.426a2.228 2.228 0 01-3.148 0 2.228 2.228 0 010-3.148L12.278 1.574a2.228 2.228 0 013.148 0c.868.868.868 2.28 0 3.148z" fill="currentColor"/></symbol><symbol fill="none" xmlns="http://www.w3.org/2000/svg" viewBox="0 0 24 24" id="catalog"><path d="M15.844 11.25h5.062A3.097 3.097 0 0024 8.156V3.094A3.097 3.097 0 0020.906 0h-5.062a3.097 3.097 0 00-3.094 3.094v5.062a3.097 3.097 0 003.094 3.094zm5.062-9.75c.88 0 1.594.715 1.594 1.594v5.062c0 .88-.715 1.594-1.594 1.594h-5.062a1.596 1.596 0 01-1.594-1.594V3.094c0-.88.715-1.594 1.594-1.594h5.062zM3.094 11.25h5.062a3.097 3.097 0 003.094-3.094V3.094A3.097 3.097 0 008.156 0H3.094A3.097 3.097 0 000 3.094v5.062a3.097 3.097 0 003.094 3.094zM8.156 1.5c.88 0 1.594.715 1.594 1.594v5.062c0 .88-.715 1.594-1.594 1.594H3.094A1.596 1.596 0 011.5 8.156V3.094c0-.88.715-1.594 1.594-1.594h5.062zM5.625 24a5.631 5.631 0 005.625-5.625 5.631 5.631 0 00-5.625-5.625A5.631 5.631 0 000 18.375 5.631 5.631 0 005.625 24zm0-9.75a4.13 4.13 0 014.125 4.125A4.13 4.13 0 015.625 22.5 4.13 4.13 0 011.5 18.375a4.13 4.13 0 014.125-4.125zM15.844 24h5.062A3.097 3.097 0 0024 20.906v-5.062a3.097 3.097 0 00-3.094-3.094h-5.062a3.097 3.097 0 00-3.094 3.094v5.062A3.097 3.097 0 0015.844 24zm5.062-9.75c.88 0 1.594.715 1.594 1.594v5.062c0 .88-.715 1.594-1.594 1.594h-5.062a1.596 1.596 0 01-1.594-1.594v-5.062c0-.88.715-1.594 1.594-1.594h5.062z" fill="#7B7B7B"/></symbol></svg>