<svg width="38" height="38" fill="none" xmlns="http://www.w3.org/2000/svg"><g clip-path="url(#clip0)"><path d="M12.441 14.31c-.614 0-1.113.498-1.113 1.113v3.036L9.23 14.862a1.113 1.113 0 00-2.075.56v7.155a1.113 1.113 0 102.226 0V19.54l2.099 3.598c.11.19.543.706 1.252.514.486-.131.823-.572.823-1.075v-7.154c0-.615-.498-1.114-1.114-1.114z" fill="url(#paint0_linear)"/><path d="M30.526 14.327a1.114 1.114 0 00-1.293.897l-.557 3.08-1.176-3.26a1.113 1.113 0 00-2.094 0l-1.18 3.26-.553-3.079a1.114 1.114 0 00-2.191.395l1.288 7.154a1.113 1.113 0 002.142.182l1.54-4.257 1.535 4.256c.16.444.581.735 1.047.735.767 0 1.047-.647 1.096-.915l1.294-7.154a1.114 1.114 0 00-.898-1.294z" fill="url(#paint1_linear)"/><path d="M19.596 16.536a1.113 1.113 0 100-2.227H16.02c-.615 0-1.113.499-1.113 1.114v7.154c0 .615.498 1.113 1.113 1.113h3.577a1.113 1.113 0 100-2.226h-2.464v-1.35H19a1.113 1.113 0 100-2.227h-1.868v-1.351h2.464z" fill="url(#paint2_linear)"/><path d="M38 19c0-.895-.311-1.77-.875-2.464l-1.594-1.964.398-2.5c.334-2.087-1.002-3.711-2.466-4.27l-2.367-.906-.901-2.357a3.91 3.91 0 00-4.27-2.47l-2.5.4L21.464.875a3.902 3.902 0 00-4.927-.001l-1.964 1.594-2.5-.398c-2.086-.334-3.711 1.002-4.27 2.466l-.905 2.366-2.358.902a3.91 3.91 0 00-2.469 4.27l.398 2.499-1.592 1.963a3.902 3.902 0 00-.001 4.927l1.594 1.964-.398 2.5c-.334 2.086 1.002 3.711 2.466 4.27l2.367.905.901 2.358a3.91 3.91 0 004.27 2.469l2.5-.398 1.962 1.592a3.9 3.9 0 004.927 0l1.964-1.593 2.5.398c2.086.333 3.711-1.002 4.27-2.466l.905-2.367 2.358-.901a3.91 3.91 0 002.469-4.27l-.398-2.5 1.592-1.962A3.9 3.9 0 0038 19zm-2.603 1.058l-1.746 2.152a1.693 1.693 0 00-.356 1.33l.436 2.736c.105.657-.2 1.512-1.061 1.838l-2.588.99c-.004 0-.009.003-.013.004a1.697 1.697 0 00-.961.974l-.99 2.586c-.238.623-.93 1.208-1.84 1.062l-2.736-.435a1.675 1.675 0 00-1.337.361l-2.144 1.741a1.68 1.68 0 01-2.119 0l-2.152-1.746-.02-.015a1.693 1.693 0 00-1.31-.34l-2.737.435c-.656.105-1.512-.2-1.837-1.061l-.99-2.588-.005-.013a1.698 1.698 0 00-.973-.961l-2.586-.99c-.623-.238-1.208-.93-1.062-1.839l.435-2.737.002-.01a1.675 1.675 0 00-.363-1.326L2.603 20.06a1.678 1.678 0 010-2.117l1.746-2.153.015-.02c.433-.559.37-1.135.34-1.31l-.435-2.737c-.105-.656.2-1.511 1.06-1.837l2.589-.99.013-.005c.397-.157.778-.487.961-.973l.99-2.586c.238-.623.93-1.207 1.839-1.062l2.737.435.01.001a1.675 1.675 0 001.326-.362l2.145-1.741a1.678 1.678 0 012.118 0l2.153 1.746.02.015c.558.433 1.135.37 1.31.34l2.737-.435c.656-.105 1.511.2 1.837 1.061l.99 2.588a1.697 1.697 0 00.979.974l2.585.99c.623.238 1.207.93 1.062 1.839l-.435 2.737-.002.01a1.675 1.675 0 00.363 1.326l1.74 2.145c.5.613.506 1.5.001 2.119z" fill="url(#paint3_linear)"/></g><defs><linearGradient id="paint0_linear" x1="13.555" y1="14.309" x2="6.761" y2="14.604" gradientUnits="userSpaceOnUse"><stop stop-color="#F86476"/><stop offset=".342" stop-color="#FEA185"/></linearGradient><linearGradient id="paint1_linear" x1="31.442" y1="14.309" x2="20.878" y2="15.023" gradientUnits="userSpaceOnUse"><stop stop-color="#F86476"/><stop offset=".342" stop-color="#FEA185"/></linearGradient><linearGradient id="paint2_linear" x1="20.709" y1="14.309" x2="14.546" y2="14.552" gradientUnits="userSpaceOnUse"><stop stop-color="#F86476"/><stop offset=".342" stop-color="#FEA185"/></linearGradient><linearGradient id="paint3_linear" x1="38" y1="0" x2="-2.252" y2="2.558" gradientUnits="userSpaceOnUse"><stop stop-color="#F86476"/><stop offset=".342" stop-color="#FEA185"/></linearGradient><clipPath id="clip0"><path fill="#fff" d="M0 0h38v38H0z"/></clipPath></defs></svg>