<svg xmlns="http://www.w3.org/2000/svg" viewBox="0 0 52.03 54.15"><path d="M11.26 21.46a10.72 10.72 0 01-7.95-3.14 10.37 10.37 0 01-3-7.63 10.44 10.44 0 013.13-7.63 10.6 10.6 0 018-3.06 10.69 10.69 0 018 3.2 10.35 10.35 0 013 7.69 10.28 10.28 0 01-3.16 7.57 10.77 10.77 0 01-8.02 3zm1.66 21.79h-6L33.64.84l6.06.05zm30.07-2a10.75 10.75 0 01-8 3A10.73 10.73 0 0127 41.08a10.44 10.44 0 01-3-7.63 10.47 10.47 0 013.1-7.64 10.63 10.63 0 018-3A10.58 10.58 0 0143.12 26a10.34 10.34 0 013 7.69A10.28 10.28 0 0143 41.22zM11.32 14.69a3.53 3.53 0 002.6-.94 3.9 3.9 0 001-2.93 4.05 4.05 0 00-1-3 3.49 3.49 0 00-2.59-1 3.38 3.38 0 00-2.55 1 4.18 4.18 0 00-1 3 4.12 4.12 0 00.9 3 3.52 3.52 0 002.64.87zM35 37.44c2.39 0 3.6-1.26 3.62-3.86a4 4 0 00-1-3 3.4 3.4 0 00-2.59-1c-2.35 0-3.53 1.3-3.56 4s1.22 3.84 3.53 3.86z" fill="#fff" fill-opacity=".17"/></svg>