<svg width="22" height="22" fill="none" xmlns="http://www.w3.org/2000/svg"><g clip-path="url(#clip0)" fill="#7B7B7B"><path d="M20.39 2H4v.143l-.205-.703A2.01 2.01 0 001.875 0H.5a.5.5 0 100 1h1.375c.442 0 .836.296.96.72l3.112 10.67-1.594 1.994A1.612 1.612 0 005.61 17H19.5a.5.5 0 100-1H5.61a.611.611 0 01-.476-.992L6.74 13h9.807c.77 0 1.481-.45 1.81-1.148l3.49-7.415c.1-.213.152-.45.152-.685V3.61A1.61 1.61 0 0020.39 2zM21 3.752c0 .09-.02.18-.058.26l-3.489 7.414c-.164.348-.52.574-.905.574H6.875L4.25 3h16.14c.336 0 .61.274.61.61v.142zM6 18c-1.103 0-2 .897-2 2s.897 2 2 2 2-.897 2-2-.897-2-2-2zm0 3c-.551 0-1-.449-1-1 0-.551.449-1 1-1 .551 0 1 .449 1 1 0 .551-.449 1-1 1zm12-3c-1.103 0-2 .897-2 2s.897 2 2 2 2-.897 2-2-.897-2-2-2zm0 3c-.551 0-1-.449-1-1 0-.551.449-1 1-1 .551 0 1 .449 1 1 0 .551-.449 1-1 1z"/></g><defs><clipPath id="clip0"><path fill="#fff" d="M0 0h22v22H0z"/></clipPath></defs></svg>