<svg width="28" height="28" fill="none" xmlns="http://www.w3.org/2000/svg"><g clip-path="url(#clip0)"><path d="M14 28c7.732 0 14-6.268 14-14S21.732 0 14 0 0 6.268 0 14s6.268 14 14 14z" fill="#D42428"/><path d="M23.9 4.1c5.466 5.467 5.467 14.332 0 19.8-5.468 5.467-14.333 5.467-19.801 0l19.8-19.8z" fill="#CC202D"/><path d="M21.326 11.299c0-1.174-.95-2.125-2.123-2.125H9.238a2.124 2.124 0 00-2.123 2.125v5.697c0 1.174.95 2.125 2.123 2.125h9.964a2.124 2.124 0 002.124-2.125V11.3zM12.8 16.55V11.2l4.059 2.676-4.059 2.676z" fill="#fff"/></g><defs><clipPath id="clip0"><path fill="#fff" d="M0 0h28v28H0z"/></clipPath></defs></svg>